<svg width="20" height="20" viewBox="0 0 20 20" fill="none" xmlns="http://www.w3.org/2000/svg">
<path d="M11 0V2C15 2.5 18 5.8 18 9.9C18 13.1 16.1 15.9 13.3 17.2L11 15V20H16L14.8 18.8C17.9 17.1 20 13.8 20 10C20 4.8 16 0.5 11 0ZM9 0C7.1 0.2 5.2 1 3.7 2.2L5.1 3.6C6.2 2.8 7.6 2.2 9 2V0ZM2.2 3.7C1 5.2 0.2 7.1 0 9H2C2.2 7.6 2.8 6.2 3.6 5.1L2.2 3.7ZM0 11C0.2 12.9 1 14.8 2.2 16.3L3.6 14.9C2.8 13.8 2.2 12.4 2 11H0ZM5.1 16.4L3.7 17.8C5.2 19 7.1 19.8 9 20V18C7.6 17.8 6.2 17.2 5.1 16.4ZM10 6V8H13V9H12C10.9 9 10 9.9 10 11V14H15V12H12V11H13C14.1 11 15 10.1 15 9V8C15 6.9 14.1 6 13 6H10ZM5 6V8H6V14H8V6H5Z" fill="#F47621"/>
</svg>
