<svg width="219" height="429" viewBox="0 0 219 429" fill="none" xmlns="http://www.w3.org/2000/svg">
<path d="M219 0H157V62H219V0Z" fill="#F47621" fill-opacity="0.02"/>
<path d="M218.075 0.924805V61.0752H157.925V0.924805H218.075Z" stroke="#F47621" stroke-opacity="0.2" stroke-width="1.85"/>
<path d="M219 80V329.921H156.456L87.083 260.554L114.554 377.027L63.5471 428.03L12.8869 377.413L40.9757 257.622L0 298.633V204.806L62.5439 142.152L156.456 236.056V80H219Z" fill="#20438E" fill-opacity="0.02"/>
<path d="M218.075 80.9248V328.996H156.84L87.7373 259.9L85.4355 257.599L86.1826 260.767L113.535 376.737L63.5459 426.722L13.9043 377.122L41.876 257.833L42.6182 254.67L40.3213 256.969L0.924805 296.398V205.188L62.5439 143.461L155.802 236.71L157.381 238.289V80.9248H218.075Z" stroke="#194894" stroke-opacity="0.2" stroke-width="1.85"/>
</svg>
