<svg width="2000" height="628" viewBox="0 0 2000 628" fill="none" xmlns="http://www.w3.org/2000/svg">
<path d="M558.179 186.34V503.2H478.869L390.919 415.27L425.769 562.91L361.099 627.59L296.889 563.38L332.519 411.53L280.539 463.51V344.58L359.859 265.13L478.869 384.19V186.34H558.179Z" fill="#253782"/>
<path d="M240.79 372.26H161.48V463.51H240.79V372.26Z" fill="#EC6D05"/>
<path d="M558.169 40.11H478.859V131.36H558.169V40.11Z" fill="#EC6D05"/>
<path d="M359.85 79.73L240.79 198.79V0.409973H161.48V317.8H240.79L359.85 198.79L439.17 278.1V159.17L359.85 79.73Z" fill="#253782"/>
<path d="M744.597 128.957H762.706L740.233 205.32H721.579L707.397 161.575L691.47 205.32H672.924L650.343 128.957H668.343L683.179 181.538L703.142 128.957H711.542L729.869 181.648L744.597 128.957ZM792.459 206.629C774.568 206.629 762.459 194.847 762.459 177.502C762.459 160.92 774.786 149.466 792.895 149.466C810.459 149.466 822.459 160.92 822.459 177.502C822.459 194.738 810.35 206.629 792.459 206.629ZM792.459 192.666C800.532 192.666 805.986 186.666 805.986 177.829C805.986 169.102 800.641 162.993 792.895 162.993C784.604 162.993 778.932 168.993 778.932 177.829C778.932 186.666 784.386 192.666 792.459 192.666ZM907.136 205.32L902.227 199.647C896.227 204.447 888.918 206.847 880.518 206.847C864.046 206.847 853.791 197.684 853.791 185.357C853.791 176.629 858.81 169.648 869.391 163.32C863.937 156.993 861.428 151.43 861.428 145.975C861.428 135.721 869.719 127.43 883.137 127.43C896.118 127.43 904.518 134.739 904.518 145.321C904.518 153.284 899.936 160.048 889.682 166.048L900.7 178.593C902.118 175.102 902.991 171.284 903.318 166.92H917.936C916.845 176.193 914.445 183.829 910.736 190.047L924.045 205.32H907.136ZM876.155 146.739C876.155 150.011 878.009 152.848 881.718 156.884C887.5 153.502 890.009 150.448 890.009 146.848C890.009 143.03 887.173 140.412 883.028 140.412C878.991 140.412 876.155 143.03 876.155 146.739ZM881.718 192.666C885.864 192.666 889.355 191.575 892.191 189.393L877.9 173.139C872.882 176.084 870.264 179.902 870.264 184.048C870.264 189.175 874.409 192.666 881.718 192.666ZM1014.45 128.957H1032.55L1010.08 205.32H991.427L977.245 161.575L961.318 205.32H942.773L920.191 128.957H938.191L953.028 181.538L972.991 128.957H981.391L999.718 181.648L1014.45 128.957ZM1084.88 205.32H1071.13V197.138C1068.41 203.029 1062.08 206.629 1053.13 206.629C1039.82 206.629 1032.95 198.993 1032.95 188.52C1032.95 173.575 1049.1 169.32 1068.95 172.484L1068.84 170.084C1068.84 164.411 1063.61 162.23 1058.59 162.23C1053.46 162.23 1048.33 164.629 1044.73 168.339L1036.22 159.066C1042.77 152.521 1051.28 149.466 1059.9 149.466C1074.19 149.466 1084.88 159.284 1084.88 172.593V205.32ZM1069.06 181.32C1056.73 179.248 1048.77 180.884 1048.77 187.538C1048.77 191.902 1050.95 194.847 1057.28 194.847C1064.7 194.847 1069.06 190.702 1069.06 183.72V181.32ZM1131.28 149.466C1141.97 149.466 1150.59 157.866 1150.59 168.557V205.32H1134.34V174.12C1134.34 168.557 1129.86 164.084 1124.3 163.975C1118.63 163.975 1114.15 168.557 1114.15 174.12L1114.26 205.32H1097.9V150.775H1113.83V158.848C1116.88 153.066 1123.86 149.466 1131.28 149.466ZM1197.33 149.466C1208.02 149.466 1216.64 157.866 1216.64 168.557V205.32H1200.39V174.12C1200.39 168.557 1195.91 164.084 1190.35 163.975C1184.68 163.975 1180.2 168.557 1180.2 174.12L1180.31 205.32H1163.95V150.775H1179.88V158.848C1182.93 153.066 1189.91 149.466 1197.33 149.466Z" fill="#253782"/>
<path d="M690.27 248.047C705.542 248.047 715.906 258.847 715.906 274.774C715.906 290.701 705.542 301.501 690.27 301.501H673.579V324.41H656.67V248.047H690.27ZM687.979 286.229C694.197 286.229 698.452 282.519 698.452 274.774C698.452 268.011 694.088 263.211 687.979 263.211H673.579V286.229H687.979ZM738.023 301.174C738.023 307.937 745.005 312.301 752.314 312.301C759.187 312.301 765.623 310.01 768.896 306.519L777.732 316.119C773.041 321.901 762.786 325.501 751.659 325.501C733.55 325.501 721.55 314.046 721.55 296.81C721.55 280.119 733.769 268.774 751.005 268.774C770.532 268.774 781.659 280.665 779.586 301.174H738.023ZM751.005 280.665C743.587 280.665 737.914 286.229 737.805 291.247H763.659C763.55 285.574 759.077 280.665 751.005 280.665ZM822.736 268.556C824.372 268.556 825.899 268.774 827.427 269.21L827.317 284.592C824.808 284.483 822.19 284.483 819.681 284.483C810.954 284.483 806.699 288.847 806.699 298.338V324.41H790.445V269.865H806.372V278.81C809.318 272.592 815.427 268.556 822.736 268.556ZM857.641 325.937C847.059 325.937 837.459 322.446 832.005 316.665L838.987 305.537C843.678 309.683 850.987 312.628 857.859 312.628C863.096 312.628 865.714 310.883 865.714 308.265C865.714 305.974 863.859 304.665 859.496 303.574L849.678 301.174C838.659 298.556 834.078 293.21 834.078 285.465C834.078 274.338 843.023 267.247 857.641 267.247C867.35 267.247 876.186 270.41 881.205 275.429L874.005 286.447C868.55 282.629 863.096 280.556 857.641 280.556C852.732 280.556 850.223 282.192 850.223 284.81C850.223 286.774 851.859 288.083 856.223 289.065L866.041 291.465C877.495 294.301 882.077 299.428 882.077 307.392C882.077 318.846 873.023 325.937 857.641 325.937ZM919.127 325.719C901.236 325.719 889.127 313.937 889.127 296.592C889.127 280.01 901.454 268.556 919.563 268.556C937.127 268.556 949.127 280.01 949.127 296.592C949.127 313.828 937.018 325.719 919.127 325.719ZM919.127 311.756C927.2 311.756 932.654 305.756 932.654 296.919C932.654 288.192 927.309 282.083 919.563 282.083C911.272 282.083 905.6 288.083 905.6 296.919C905.6 305.756 911.054 311.756 919.127 311.756ZM993.108 268.556C1003.8 268.556 1012.42 276.956 1012.42 287.647V324.41H996.162V293.21C996.162 287.647 991.69 283.174 986.126 283.065C980.453 283.065 975.981 287.647 975.981 293.21L976.09 324.41H959.726V269.865H975.653V277.938C978.708 272.156 985.69 268.556 993.108 268.556ZM1074.76 324.41H1061.01V316.228C1058.29 322.119 1051.96 325.719 1043.01 325.719C1029.7 325.719 1022.83 318.083 1022.83 307.61C1022.83 292.665 1038.98 288.41 1058.83 291.574L1058.72 289.174C1058.72 283.501 1053.49 281.319 1048.47 281.319C1043.34 281.319 1038.21 283.719 1034.61 287.429L1026.1 278.156C1032.65 271.61 1041.16 268.556 1049.78 268.556C1064.07 268.556 1074.76 278.374 1074.76 291.683V324.41ZM1058.94 300.41C1046.61 298.338 1038.65 299.974 1038.65 306.628C1038.65 310.992 1040.83 313.937 1047.16 313.937C1054.58 313.937 1058.94 309.792 1058.94 302.81V300.41ZM1087.34 324.41V248.047H1103.6V324.41H1087.34ZM1161.15 325.937C1150.57 325.937 1140.97 322.446 1135.52 316.665L1142.5 305.537C1147.19 309.683 1154.5 312.628 1161.37 312.628C1166.61 312.628 1169.23 310.883 1169.23 308.265C1169.23 305.974 1167.37 304.665 1163.01 303.574L1153.19 301.174C1142.17 298.556 1137.59 293.21 1137.59 285.465C1137.59 274.338 1146.54 267.247 1161.15 267.247C1170.86 267.247 1179.7 270.41 1184.72 275.429L1177.52 286.447C1172.06 282.629 1166.61 280.556 1161.15 280.556C1156.25 280.556 1153.74 282.192 1153.74 284.81C1153.74 286.774 1155.37 288.083 1159.74 289.065L1169.55 291.465C1181.01 294.301 1185.59 299.428 1185.59 307.392C1185.59 318.846 1176.54 325.937 1161.15 325.937ZM1209.11 301.174C1209.11 307.937 1216.09 312.301 1223.4 312.301C1230.28 312.301 1236.71 310.01 1239.99 306.519L1248.82 316.119C1244.13 321.901 1233.88 325.501 1222.75 325.501C1204.64 325.501 1192.64 314.046 1192.64 296.81C1192.64 280.119 1204.86 268.774 1222.09 268.774C1241.62 268.774 1252.75 280.665 1250.68 301.174H1209.11ZM1222.09 280.665C1214.68 280.665 1209 286.229 1208.89 291.247H1234.75C1234.64 285.574 1230.17 280.665 1222.09 280.665ZM1293.83 268.556C1295.46 268.556 1296.99 268.774 1298.52 269.21L1298.41 284.592C1295.9 284.483 1293.28 284.483 1290.77 284.483C1282.04 284.483 1277.79 288.847 1277.79 298.338V324.41H1261.53V269.865H1277.46V278.81C1280.41 272.592 1286.52 268.556 1293.83 268.556ZM1363.04 269.865L1342.2 324.41H1324.42L1303.58 269.865H1321.04L1333.36 304.774L1345.58 269.865H1363.04ZM1379.02 260.92C1373.57 260.92 1369.2 256.556 1369.2 251.211C1369.2 245.865 1373.57 241.502 1379.02 241.502C1384.26 241.502 1388.62 245.865 1388.62 251.211C1388.62 256.556 1384.26 260.92 1379.02 260.92ZM1370.84 269.865H1387.09V324.41H1370.84V269.865ZM1427.27 325.937C1409.82 325.937 1398.15 313.828 1398.15 296.592C1398.15 279.356 1409.93 267.247 1427.27 267.247C1438.4 267.247 1447.46 272.156 1452.15 280.447L1440.26 288.847C1437.2 284.374 1433.06 281.974 1427.82 281.974C1419.86 281.974 1414.62 287.756 1414.62 296.592C1414.62 305.428 1419.86 311.21 1427.82 311.21C1433.06 311.21 1437.2 308.81 1440.26 304.228L1452.26 312.628C1447.57 321.028 1438.4 325.937 1427.27 325.937ZM1473.63 301.174C1473.63 307.937 1480.62 312.301 1487.93 312.301C1494.8 312.301 1501.23 310.01 1504.51 306.519L1513.34 316.119C1508.65 321.901 1498.4 325.501 1487.27 325.501C1469.16 325.501 1457.16 314.046 1457.16 296.81C1457.16 280.119 1469.38 268.774 1486.62 268.774C1506.14 268.774 1517.27 280.665 1515.2 301.174H1473.63ZM1486.62 280.665C1479.2 280.665 1473.53 286.229 1473.42 291.247H1499.27C1499.16 285.574 1494.69 280.665 1486.62 280.665ZM1619.77 280.556L1619.66 309.792C1612.13 319.937 1600.24 325.937 1586.5 325.937C1560.21 325.828 1546.57 308.374 1546.57 286.447C1546.57 264.301 1561.08 246.629 1586.5 246.629C1599.37 246.629 1610.72 252.629 1617.92 261.901L1604.17 271.61C1600.13 265.938 1593.92 262.447 1586.5 262.447C1572.32 262.447 1564.03 273.029 1564.03 286.447C1564.03 299.647 1571.99 310.119 1586.5 310.228C1593.7 310.228 1599.81 308.374 1604.28 303.137V294.301H1588.35V280.556H1619.77ZM1699.8 268.556C1710.93 268.556 1718.57 277.501 1718.57 289.392V324.41H1702.31V293.865C1702.31 287.538 1698.39 283.065 1693.15 283.065C1687.26 283.065 1683.44 287.974 1683.44 293.865V324.41H1667.19V293.865C1667.19 287.538 1662.93 283.065 1657.7 283.065C1651.81 283.065 1648.31 287.974 1648.31 293.865V324.41H1632.06V269.865H1647.88V277.72C1650.82 272.374 1657.48 268.556 1664.9 268.556C1672.53 268.556 1679.19 272.81 1681.48 278.92C1684.31 272.81 1691.62 268.556 1699.8 268.556ZM1765.81 268.665C1782.17 268.665 1791.11 280.119 1791.11 296.701C1791.11 314.265 1782.71 325.501 1766.02 325.501C1757.73 325.501 1749.66 321.683 1746.72 315.356V324.41H1732.1V248.047H1748.02V278.592C1749.01 274.883 1755.44 268.665 1765.81 268.665ZM1761.33 311.319C1769.3 311.319 1774.64 305.428 1774.64 296.701C1774.64 288.083 1769.41 282.301 1761.77 282.301C1753.59 282.301 1748.02 288.083 1748.02 296.701C1748.02 305.319 1753.37 311.319 1761.33 311.319ZM1867.99 248.047V324.41H1851.19V295.719H1819.66V324.41H1802.75V248.047H1819.66V280.119H1851.19V248.047H1867.99Z" fill="#253782"/>
<path d="M684.113 372.793C704.999 372.793 719.442 388.276 719.442 409.162C719.442 430.255 705.103 445.53 684.113 445.53H658.136V372.793H684.113ZM682.97 436.282C698.868 436.282 709.051 425.06 709.051 409.162C709.051 393.263 698.868 382.041 682.97 382.041H668.007V436.282H682.97ZM739.927 421.631C739.927 431.814 747.721 438.776 757.904 438.776C765.281 438.776 772.035 435.659 775.568 430.463L781.076 436.074C776.608 442.724 767.567 446.777 757.488 446.777C741.278 446.777 730.16 435.659 730.16 419.449C730.16 403.446 741.486 392.432 757.176 392.432C773.802 392.432 783.673 403.239 782.53 421.631H739.927ZM757.176 399.706C747.409 399.706 740.239 406.772 739.823 415.5H773.075C772.867 406.252 766.944 399.706 757.176 399.706ZM800.478 382.249C797.049 382.249 794.244 379.443 794.244 376.014C794.244 372.689 797.049 369.884 800.478 369.884C803.804 369.884 806.505 372.689 806.505 376.014C806.505 379.443 803.804 382.249 800.478 382.249ZM795.699 393.575H805.258V445.53H795.699V393.575ZM848.893 392.328C859.7 392.328 868.428 400.953 868.428 411.655V445.53H858.765V414.669C858.765 407.187 852.738 401.057 845.049 400.953C837.463 400.953 831.436 407.187 831.436 414.669V445.53H821.773V393.575H831.228V402.823C834.346 396.485 841.204 392.328 848.893 392.328ZM903.712 446.985C890.516 446.985 879.293 436.49 878.878 423.917L888.645 420.592V422.254C888.645 430.463 895.295 437.217 903.712 437.217C911.921 437.217 918.675 430.463 918.675 422.254V372.793H928.547V422.046C928.547 435.866 917.428 446.985 903.712 446.985ZM969.986 446.777C953.672 446.777 942.553 435.555 942.553 419.241C942.553 403.446 953.984 392.328 970.193 392.328C986.3 392.328 997.522 403.446 997.522 419.241C997.522 435.243 986.092 446.777 969.986 446.777ZM969.986 438.36C980.481 438.36 987.858 430.463 987.858 419.449C987.858 408.33 980.481 400.433 970.193 400.433C959.595 400.433 952.321 408.226 952.321 419.449C952.321 430.671 959.491 438.36 969.986 438.36ZM1040.02 392.328C1055.19 392.328 1064.75 403.446 1064.75 419.241C1064.75 435.762 1055.71 446.673 1040.13 446.673C1030.88 446.673 1022.67 441.685 1019.45 433.892V445.426H1010.72V372.793H1020.18V404.901C1022.25 398.563 1029.63 392.328 1040.02 392.328ZM1037.53 438.152C1047.92 438.152 1054.99 430.463 1054.99 419.241C1054.99 408.122 1048.02 400.537 1037.84 400.537C1027.45 400.537 1020.18 408.226 1020.18 419.241C1020.18 430.359 1027.35 438.152 1037.53 438.152ZM1162.23 392.328C1172.83 392.328 1180.62 400.849 1180.62 411.863V445.426H1170.96V414.253C1170.96 406.668 1165.45 400.953 1158.59 400.953C1151.21 400.953 1145.81 406.979 1145.81 414.253V445.426H1136.25V414.253C1136.25 406.668 1130.54 400.953 1123.57 400.953C1116.3 400.953 1111 406.979 1111 414.253V445.426H1101.34V393.575H1110.79V402.096C1113.7 396.381 1120.15 392.328 1127.52 392.328C1135.32 392.328 1142.07 397.108 1144.36 403.654C1146.95 397.108 1154.12 392.328 1162.23 392.328ZM1201.61 382.249C1198.18 382.249 1195.37 379.443 1195.37 376.014C1195.37 372.689 1198.18 369.884 1201.61 369.884C1204.93 369.884 1207.63 372.689 1207.63 376.014C1207.63 379.443 1204.93 382.249 1201.61 382.249ZM1196.83 393.575H1206.39V445.53H1196.83V393.575ZM1236.93 445.53C1231.73 445.53 1227.58 441.27 1227.58 436.074L1227.68 402.096H1217.08V393.471H1227.68V377.261H1237.24V393.471H1253.24V402.096H1237.24V435.347C1237.24 436.178 1237.86 436.802 1238.7 436.802H1253.35V445.53H1236.93ZM1296.11 421.631C1296.11 431.814 1303.9 438.776 1314.09 438.776C1321.46 438.776 1328.22 435.659 1331.75 430.463L1337.26 436.074C1332.79 442.724 1323.75 446.777 1313.67 446.777C1297.46 446.777 1286.34 435.659 1286.34 419.449C1286.34 403.446 1297.67 392.432 1313.36 392.432C1329.98 392.432 1339.86 403.239 1338.71 421.631H1296.11ZM1313.36 399.706C1303.59 399.706 1296.42 406.772 1296.01 415.5H1329.26C1329.05 406.252 1323.13 399.706 1313.36 399.706ZM1356.66 382.249C1353.23 382.249 1350.43 379.443 1350.43 376.014C1350.43 372.689 1353.23 369.884 1356.66 369.884C1359.99 369.884 1362.69 372.689 1362.69 376.014C1362.69 379.443 1359.99 382.249 1356.66 382.249ZM1351.88 393.575H1361.44V445.53H1351.88V393.575ZM1405.08 392.328C1415.88 392.328 1424.61 400.953 1424.61 411.655V445.53H1414.95V414.669C1414.95 407.187 1408.92 401.057 1401.23 400.953C1393.65 400.953 1387.62 407.187 1387.62 414.669V445.53H1377.96V393.575H1387.41V402.823C1390.53 396.485 1397.39 392.328 1405.08 392.328ZM1446.7 421.631C1446.7 431.814 1454.49 438.776 1464.67 438.776C1472.05 438.776 1478.81 435.659 1482.34 430.463L1487.85 436.074C1483.38 442.724 1474.34 446.777 1464.26 446.777C1448.05 446.777 1436.93 435.659 1436.93 419.449C1436.93 403.446 1448.26 392.432 1463.95 392.432C1480.57 392.432 1490.44 403.239 1489.3 421.631H1446.7ZM1463.95 399.706C1454.18 399.706 1447.01 406.772 1446.59 415.5H1479.85C1479.64 406.252 1473.71 399.706 1463.95 399.706ZM1563.26 392.328C1573.86 392.328 1581.65 400.849 1581.65 411.863V445.426H1571.99V414.253C1571.99 406.668 1566.48 400.953 1559.62 400.953C1552.24 400.953 1546.84 406.979 1546.84 414.253V445.426H1537.28V414.253C1537.28 406.668 1531.56 400.953 1524.6 400.953C1517.33 400.953 1512.03 406.979 1512.03 414.253V445.426H1502.37V393.575H1511.82V402.096C1514.73 396.381 1521.17 392.328 1528.55 392.328C1536.34 392.328 1543.1 397.108 1545.38 403.654C1547.98 397.108 1555.15 392.328 1563.26 392.328ZM1680.81 372.793L1643.92 409.577L1680.6 445.53H1668.14L1637.59 416.331L1633.84 420.072V445.53H1623.97V372.793H1633.84V407.291L1668.65 372.793H1680.81ZM1689.78 445.53V372.793H1699.44V445.53H1689.78ZM1720.65 382.249C1717.22 382.249 1714.42 379.443 1714.42 376.014C1714.42 372.689 1717.22 369.884 1720.65 369.884C1723.98 369.884 1726.68 372.689 1726.68 376.014C1726.68 379.443 1723.98 382.249 1720.65 382.249ZM1715.87 393.575H1725.43V445.53H1715.87V393.575ZM1765.53 446.881C1749.63 446.881 1738.83 435.555 1738.83 419.241C1738.83 403.135 1749.74 391.601 1765.53 391.601C1775.72 391.601 1784.03 396.173 1788.5 404.278L1781.33 409.162C1777.9 403.55 1772.39 400.329 1765.84 400.329C1755.56 400.329 1748.49 408.019 1748.49 419.241C1748.49 430.463 1755.56 438.152 1765.84 438.152C1772.39 438.152 1778 434.827 1781.33 429.112L1788.5 433.996C1784.03 442.205 1775.72 446.881 1765.53 446.881ZM1834.59 445.53L1812.04 423.917L1809.45 426.826V445.53H1799.89V372.793H1809.45V415.708L1834.18 393.575H1845.5L1819.32 417.682L1845.92 445.53H1834.59Z" fill="#253782"/>
</svg>
