<svg width="194" height="76" viewBox="0 0 194 76" fill="none" xmlns="http://www.w3.org/2000/svg">
<path d="M59.71 59.3574L60.4929 58.747C60.9199 59.4878 61.602 59.8849 62.557 59.8849C63.5119 59.8849 64.0576 59.4997 64.0576 58.8655C64.0576 58.3914 63.7491 58.1069 62.8713 57.8994L61.8333 57.6505C60.5107 57.3245 59.8938 56.7022 59.8938 55.7243C59.8938 54.5389 60.831 53.7388 62.4324 53.7388C63.6661 53.7388 64.6151 54.2603 65.054 55.0723L64.2711 55.6946C63.8737 55.1019 63.2509 54.7582 62.4205 54.7582C61.519 54.7582 61.0386 55.1138 61.0386 55.7065C61.0386 56.1391 61.3233 56.4296 62.2663 56.6429L63.3458 56.8978C64.6507 57.2119 65.2023 57.8579 65.2023 58.8062C65.2023 60.0686 64.1525 60.9103 62.5155 60.9103C61.1513 60.9103 60.1726 60.3354 59.71 59.3574Z" fill="#20438E"/>
<path d="M68.7494 59.9913C69.4315 59.9913 70.0425 59.7246 70.3687 59.292L70.9796 59.9321C70.5525 60.5247 69.6747 60.8922 68.7079 60.8922C67.1243 60.8922 66.0566 59.8432 66.0566 58.2962C66.0566 56.7493 67.1421 55.7358 68.6545 55.7358C70.3034 55.7358 71.2643 56.7849 71.1279 58.5748H67.1717C67.1717 59.4224 67.8835 59.9972 68.7435 59.9972L68.7494 59.9913ZM67.1658 57.8755H70.0543C70.0425 57.1168 69.5324 56.5537 68.6605 56.5537C67.7886 56.5537 67.1954 57.1761 67.1658 57.8755Z" fill="#20438E"/>
<path d="M75.4458 55.7893L75.428 56.8383C75.2204 56.8206 75.001 56.8087 74.7934 56.8087C73.9452 56.8087 73.441 57.3243 73.441 58.2193V60.7797H72.3438V55.8367H73.4114V56.7257C73.6961 56.133 74.2892 55.73 74.995 55.73C75.1433 55.73 75.3035 55.7478 75.4517 55.7893H75.4458Z" fill="#20438E"/>
<path d="M79.1938 60.7799H77.9898L76.0146 55.8369H77.2009L78.5948 59.4463L79.9767 55.8369H81.163L79.1938 60.7799Z" fill="#20438E"/>
<path d="M81.9346 54.1713C81.9346 53.798 82.243 53.4897 82.6285 53.4897C82.9963 53.4897 83.2988 53.798 83.2988 54.1713C83.2988 54.5447 82.9903 54.8529 82.6285 54.8529C82.243 54.8529 81.9346 54.5447 81.9346 54.1713ZM83.1683 55.8427V60.7857H82.071V55.8427H83.1683Z" fill="#20438E"/>
<path d="M84.3838 58.2787C84.3838 56.7259 85.4396 55.6294 86.9639 55.6294C87.9426 55.6294 88.7433 56.0739 89.1703 56.8326L88.3577 57.3956C88.0493 56.9037 87.5748 56.637 87.0054 56.637C86.1039 56.637 85.5048 57.2889 85.5048 58.2787C85.5048 59.2685 86.1098 59.9086 87.0054 59.9086C87.5807 59.9086 88.0552 59.63 88.3577 59.1262L89.1763 59.6893C88.7492 60.4598 87.9426 60.9043 86.9639 60.9043C85.4218 60.9043 84.3838 59.8256 84.3838 58.2787Z" fill="#20438E"/>
<path d="M92.5336 59.9913C93.2157 59.9913 93.8266 59.7246 94.1529 59.292L94.7638 59.9321C94.3367 60.5247 93.4589 60.8922 92.4921 60.8922C90.9085 60.8922 89.8408 59.8432 89.8408 58.2962C89.8408 56.7493 90.9262 55.7358 92.4387 55.7358C94.0876 55.7358 95.0485 56.7849 94.9121 58.5748H90.9559C90.9559 59.4224 91.6677 59.9972 92.5277 59.9972L92.5336 59.9913ZM90.95 57.8755H93.8385C93.8266 57.1168 93.3165 56.5537 92.4446 56.5537C91.5728 56.5537 90.9796 57.1761 90.95 57.8755Z" fill="#20438E"/>
<path d="M97.5869 54.9182V53.8633H103.174V54.9182H100.95V60.7799H99.8111V54.9182H97.5869Z" fill="#20438E"/>
<path d="M106.656 60.7798V59.8907C106.407 60.5012 105.784 60.8865 104.918 60.8865C103.75 60.8865 103.127 60.2345 103.127 59.304C103.127 57.9823 104.562 57.5556 106.52 57.8519L106.508 57.5378C106.508 56.874 106.004 56.5895 105.399 56.5895C104.853 56.5895 104.349 56.8266 104.017 57.2415L103.424 56.6191C103.957 56.0146 104.687 55.7183 105.488 55.7183C106.721 55.7183 107.593 56.5302 107.593 57.6919V60.7738H106.656V60.7798ZM104.206 59.2388C104.206 59.7544 104.503 60.0804 105.185 60.0804C106.015 60.0804 106.52 59.5944 106.52 58.7884V58.4802C105.126 58.2549 104.206 58.498 104.206 59.2388Z" fill="#20438E"/>
<path d="M108.731 54.1713C108.731 53.798 109.04 53.4897 109.425 53.4897C109.793 53.4897 110.096 53.798 110.096 54.1713C110.096 54.5447 109.787 54.8529 109.425 54.8529C109.04 54.8529 108.731 54.5447 108.731 54.1713ZM109.965 55.8427V60.7857H108.868V55.8427H109.965Z" fill="#20438E"/>
<path d="M111.442 53.8633H112.54V60.7799H111.442V53.8633Z" fill="#20438E"/>
<path d="M113.667 58.2668C113.667 56.7732 114.764 55.7183 116.348 55.7183C117.932 55.7183 118.97 56.7732 118.97 58.2668C118.97 59.7604 117.884 60.8924 116.318 60.8924C114.752 60.8924 113.667 59.8256 113.667 58.2668ZM117.86 58.2964C117.86 57.3304 117.226 56.6369 116.348 56.6369C115.417 56.6369 114.788 57.3185 114.788 58.2964C114.788 59.2744 115.411 59.9441 116.318 59.9441C117.226 59.9441 117.86 59.2625 117.86 58.2964Z" fill="#20438E"/>
<path d="M123.269 55.7893L123.251 56.8383C123.044 56.8206 122.824 56.8087 122.617 56.8087C121.768 56.8087 121.264 57.3243 121.264 58.2193V60.7797H120.167V55.8367H121.235V56.7257C121.519 56.133 122.112 55.73 122.818 55.73C122.967 55.73 123.127 55.7478 123.275 55.7893H123.269Z" fill="#20438E"/>
<path d="M126.443 59.9913C127.125 59.9913 127.736 59.7246 128.062 59.292L128.673 59.9321C128.246 60.5247 127.368 60.8922 126.401 60.8922C124.818 60.8922 123.75 59.8432 123.75 58.2962C123.75 56.7493 124.835 55.7358 126.348 55.7358C127.997 55.7358 128.958 56.7849 128.821 58.5748H124.865C124.865 59.4224 125.577 59.9972 126.437 59.9972L126.443 59.9913ZM124.859 57.8755H127.748C127.736 57.1168 127.226 56.5537 126.354 56.5537C125.482 56.5537 124.889 57.1761 124.859 57.8755Z" fill="#20438E"/>
<path d="M134.877 60.7799H133.88V59.7723C133.584 60.4539 132.824 60.8866 131.994 60.8866C130.493 60.8866 129.669 59.8494 129.669 58.2788C129.669 56.7082 130.541 55.7184 132 55.7184C132.907 55.7184 133.631 56.2992 133.797 56.8148V53.8633H134.877V60.7799ZM133.797 58.2788C133.797 57.3186 133.162 56.6607 132.255 56.6607C131.347 56.6607 130.784 57.3127 130.784 58.2788C130.784 59.2449 131.389 59.9205 132.285 59.9205C133.18 59.9205 133.797 59.2389 133.797 58.2788Z" fill="#20438E"/>
<path d="M137.884 58.7115L139.011 58.3441V58.5219C139.011 59.2212 139.586 59.808 140.298 59.808C141.01 59.808 141.585 59.2271 141.585 58.5219V53.8574H142.724V58.4922C142.724 59.8376 141.638 60.9222 140.304 60.9222C139.04 60.9222 137.949 59.9028 137.89 58.7115H137.884Z" fill="#20438E"/>
<path d="M148.762 60.7798H147.683V59.9501C147.398 60.525 146.746 60.9103 146.034 60.9103C145.025 60.9103 144.213 60.0983 144.213 59.1025V55.8428H145.322V58.7351C145.322 59.387 145.844 59.9027 146.49 59.9086C147.131 59.9086 147.665 59.387 147.665 58.7351L147.653 55.8428H148.762V60.7858V60.7798Z" fill="#20438E"/>
<path d="M149.859 60.0211L150.352 59.2803C150.749 59.7129 151.407 60.0093 152.113 60.0093C152.754 60.0093 153.074 59.7544 153.074 59.3751C153.074 59.0788 152.867 58.9009 152.345 58.7705L151.407 58.5453C150.447 58.3201 150.055 57.8638 150.055 57.194C150.055 56.2339 150.826 55.6353 152.09 55.6353C152.961 55.6353 153.709 55.9316 154.118 56.4057L153.614 57.1466C153.181 56.7495 152.677 56.5421 152.09 56.5421C151.467 56.5421 151.152 56.7673 151.152 57.1525C151.152 57.4311 151.342 57.5971 151.876 57.7274L152.813 57.9526C153.804 58.2016 154.195 58.6461 154.195 59.3277C154.195 60.2937 153.424 60.9102 152.107 60.9102C151.141 60.9102 150.31 60.5723 149.865 60.0211H149.859Z" fill="#20438E"/>
<path d="M155.767 59.7423L155.778 56.8085H154.8V55.8425H155.778V54.2837H156.876V55.8425H158.329V56.8085H156.876V59.6535C156.876 59.7305 156.935 59.7898 157.012 59.7898H158.347V60.7795H156.805C156.229 60.7795 155.767 60.3172 155.767 59.7423Z" fill="#20438E"/>
<path d="M160.998 56.8088V55.8428H162.054V55.1434C162.054 54.2662 162.724 53.8691 163.43 53.8691H164.575V54.8352H163.507C163.288 54.8352 163.151 55.0012 163.151 55.2204V55.8428H164.557V56.8088H163.151V60.7798H162.054V56.8088H160.998Z" fill="#20438E"/>
<path d="M165.062 58.2668C165.062 56.7732 166.159 55.7183 167.742 55.7183C169.326 55.7183 170.364 56.7732 170.364 58.2668C170.364 59.7604 169.279 60.8924 167.713 60.8924C166.147 60.8924 165.062 59.8256 165.062 58.2668ZM169.255 58.2964C169.255 57.3304 168.62 56.6369 167.742 56.6369C166.811 56.6369 166.183 57.3185 166.183 58.2964C166.183 59.2744 166.805 59.9441 167.713 59.9441C168.62 59.9441 169.255 59.2625 169.255 58.2964Z" fill="#20438E"/>
<path d="M174.664 55.7893L174.646 56.8383C174.438 56.8206 174.219 56.8087 174.011 56.8087C173.163 56.8087 172.659 57.3243 172.659 58.2193V60.7797H171.562V55.8367H172.629V56.7257C172.914 56.133 173.507 55.73 174.213 55.73C174.361 55.73 174.521 55.7478 174.67 55.7893H174.664Z" fill="#20438E"/>
<path d="M180.524 58.0003V60.774H179.38V58.0003L176.812 53.8574H178.116L179.955 56.8979L181.812 53.8574H183.128L180.53 58.0003H180.524Z" fill="#20438E"/>
<path d="M182.636 58.2668C182.636 56.7732 183.733 55.7183 185.317 55.7183C186.9 55.7183 187.938 56.7732 187.938 58.2668C187.938 59.7604 186.853 60.8924 185.287 60.8924C183.721 60.8924 182.636 59.8256 182.636 58.2668ZM186.829 58.2964C186.829 57.3304 186.195 56.6369 185.317 56.6369C184.385 56.6369 183.757 57.3185 183.757 58.2964C183.757 59.2744 184.38 59.9441 185.287 59.9441C186.195 59.9441 186.829 59.2625 186.829 58.2964Z" fill="#20438E"/>
<path d="M193.609 60.7798H192.529V59.9501C192.245 60.525 191.592 60.9103 190.88 60.9103C189.872 60.9103 189.06 60.0983 189.06 59.1025V55.8428H190.169V58.7351C190.169 59.387 190.691 59.9027 191.337 59.9086C191.978 59.9086 192.512 59.387 192.512 58.7351L192.5 55.8428H193.609V60.7858V60.7798Z" fill="#20438E"/>
<path d="M75.4869 23.9092L72.634 33.7359H69.9531L68.2982 28.6388L66.3884 33.7359H63.7074L60.8545 23.9092H63.482L65.1962 30.2805L67.6814 23.9092H68.9032L71.1512 30.2805L72.8653 23.9092H75.4929H75.4869Z" fill="#20438E"/>
<path d="M76.2051 28.8223C76.2051 25.7641 78.287 23.7134 81.4009 23.7134C84.5148 23.7134 86.5967 25.7641 86.5967 28.8223C86.5967 31.8806 84.5148 33.9313 81.4009 33.9313C78.287 33.9313 76.2051 31.8806 76.2051 28.8223ZM84.0699 28.8223C84.0699 27.1213 83.0023 26.0011 81.4009 26.0011C79.7994 26.0011 78.7318 27.1213 78.7318 28.8223C78.7318 30.5233 79.7994 31.6435 81.4009 31.6435C83.0023 31.6435 84.0699 30.5174 84.0699 28.8223Z" fill="#20438E"/>
<path d="M97.6103 33.1016C96.8392 33.6468 95.908 33.9313 94.8404 33.9313C92.6636 33.9313 91.3291 32.7223 91.3291 31.122C91.3291 30.0137 91.9756 29.0891 93.2686 28.3127C92.634 27.5659 92.3137 26.8369 92.3137 26.1375C92.3137 24.7921 93.411 23.7075 95.1963 23.7075C96.9816 23.7075 98.0196 24.6499 98.0196 26.0546C98.0196 27.0681 97.4324 27.9748 96.2046 28.692L97.3968 30.0552C97.5391 29.6462 97.6222 29.2254 97.6637 28.7631H99.7693C99.6269 29.9307 99.3185 30.9086 98.844 31.7088L100.612 33.7298H98.1501L97.6044 33.0956L97.6103 33.1016ZM96.1631 31.6139L94.5023 29.7351C94.01 30.0137 93.7135 30.4819 93.7135 30.9442C93.7135 31.5073 94.1642 31.8866 95.0183 31.8866C95.4513 31.8866 95.8309 31.8036 96.1572 31.6198L96.1631 31.6139ZM95.0539 27.3762C95.6293 27.0384 95.908 26.6769 95.908 26.2798C95.908 25.8827 95.6115 25.5923 95.1785 25.5923C94.7455 25.5923 94.4489 25.8708 94.4489 26.2679C94.4489 26.6354 94.6743 26.9673 95.0539 27.3762Z" fill="#20438E"/>
<path d="M119.022 23.9092L116.169 33.7359H113.488L111.833 28.6388L109.924 33.7359H107.243L104.39 23.9092H107.017L108.731 30.2805L111.217 23.9092H112.438L114.686 30.2805L116.4 23.9092H119.028H119.022Z" fill="#20438E"/>
<path d="M121.614 32.189L121.08 33.7359H118.482L122.095 23.9092H124.692L128.459 33.7359H125.861L125.315 32.189H121.62H121.614ZM123.471 26.2503L122.373 30.085H124.562L123.465 26.2503H123.471Z" fill="#20438E"/>
<path d="M138.798 33.7359H136.496L132.297 27.8802V33.7359H129.883V23.9092H132.184L136.384 29.7649V23.9092H138.798V33.7359Z" fill="#20438E"/>
<path d="M150.013 33.7359H147.712L143.513 27.8802V33.7359H141.099V23.9092H143.4L147.599 29.7649V23.9092H150.013V33.7359Z" fill="#20438E"/>
<path d="M68.7012 42.46C68.7012 44.398 67.4497 45.696 65.5932 45.696H63.796V48.2979H61.5303V39.2002H65.5873C67.4497 39.2002 68.6952 40.4982 68.6952 42.4659L68.7012 42.46ZM66.3465 42.46C66.3465 41.731 65.9194 41.239 65.2788 41.239H63.796V43.6572H65.2788C65.9135 43.6572 66.3465 43.3075 66.3465 42.46Z" fill="#20438E"/>
<path d="M76.81 48.2979H70.333V39.2002H76.6795V41.239H72.581V42.6674H76.3414V44.6825H72.581V46.2531H76.81V48.292V48.2979Z" fill="#20438E"/>
<path d="M81.0382 45.3226V48.2979H78.7725V39.2002H83.0133C84.7037 39.2002 86.0857 40.5633 86.0857 42.2525C86.0857 43.5683 85.2791 44.6588 84.1343 45.0974L83.9801 45.1507L86.0857 48.2979H83.3514L81.5186 45.3226H81.0382ZM82.7049 43.2838C83.2743 43.2838 83.731 42.8274 83.731 42.2584C83.731 41.6895 83.2743 41.2449 82.7049 41.2449H81.0382V43.2838H82.7049Z" fill="#20438E"/>
<path d="M87.0527 46.4903L88.5889 45.2398C89.1583 46.0044 89.9413 46.4489 90.997 46.4489C91.8689 46.4489 92.4561 46.1525 92.4561 45.6428C92.4561 45.2635 92.1833 45.0205 91.3529 44.8249L89.882 44.4752C88.1619 44.0603 87.2959 43.1239 87.2959 41.7844C87.2959 40.1486 88.6364 39.0166 90.8606 39.0166C92.5273 39.0166 93.85 39.7575 94.5143 40.7947L92.9781 42.0571C92.4205 41.4466 91.7147 41.0317 90.8428 41.0317C89.9709 41.0317 89.5795 41.3162 89.5795 41.7311C89.5795 42.057 89.8642 42.2882 90.7479 42.4957L92.2723 42.8572C93.9389 43.2602 94.7456 44.1729 94.7456 45.5243C94.7456 47.2786 93.2213 48.4758 90.9199 48.4758C89.0872 48.4758 87.7348 47.735 87.0587 46.4844L87.0527 46.4903Z" fill="#20438E"/>
<path d="M95.9795 43.7462C95.9795 40.9132 97.9072 39.0166 100.79 39.0166C103.672 39.0166 105.6 40.9132 105.6 43.7462C105.6 46.5792 103.672 48.4758 100.79 48.4758C97.9072 48.4758 95.9795 46.5792 95.9795 43.7462ZM103.263 43.7462C103.263 42.1756 102.273 41.1325 100.79 41.1325C99.3069 41.1325 98.3164 42.1697 98.3164 43.7462C98.3164 45.3228 99.3069 46.3599 100.79 46.3599C102.273 46.3599 103.263 45.3168 103.263 43.7462Z" fill="#20438E"/>
<path d="M115.624 48.2979H113.488L109.597 42.8748V48.2979H107.361V39.2002H109.497L113.388 44.6232V39.2002H115.624V48.2979Z" fill="#20438E"/>
<path d="M119.841 46.8695L119.349 48.2979H116.94L120.286 39.2002H122.694L126.181 48.2979H123.773L123.263 46.8695H119.841ZM121.561 41.3694L120.547 44.9196H122.575L121.561 41.3694Z" fill="#20438E"/>
<path d="M133.791 48.2979H127.492V39.2002H129.758V46.2057H133.791V48.2979Z" fill="#20438E"/>
<path d="M137.54 46.4903L139.076 45.2398C139.646 46.0044 140.429 46.4489 141.484 46.4489C142.356 46.4489 142.943 46.1525 142.943 45.6428C142.943 45.2635 142.671 45.0205 141.84 44.8249L140.369 44.4752C138.649 44.0603 137.783 43.1239 137.783 41.7844C137.783 40.1486 139.124 39.0166 141.348 39.0166C143.015 39.0166 144.337 39.7575 145.002 40.7947L143.465 42.0571C142.908 41.4466 142.202 41.0317 141.33 41.0317C140.458 41.0317 140.067 41.3162 140.067 41.7311C140.067 42.057 140.351 42.2882 141.235 42.4957L142.76 42.8572C144.426 43.2602 145.233 44.1729 145.233 45.5243C145.233 47.2786 143.709 48.4758 141.407 48.4758C139.574 48.4758 138.222 47.735 137.546 46.4844L137.54 46.4903Z" fill="#20438E"/>
<path d="M153.282 48.2979H146.805V39.2002H153.151V41.239H149.053V42.6674H152.813V44.6825H149.053V46.2531H153.282V48.292V48.2979Z" fill="#20438E"/>
<path d="M157.511 45.3226V48.2979H155.245V39.2002H159.486C161.176 39.2002 162.558 40.5633 162.558 42.2525C162.558 43.5683 161.752 44.6588 160.607 45.0974L160.453 45.1507L162.558 48.2979H159.824L157.991 45.3226H157.511ZM159.178 43.2838C159.747 43.2838 160.204 42.8274 160.204 42.2584C160.204 41.6895 159.747 41.2449 159.178 41.2449H157.511V43.2838H159.178Z" fill="#20438E"/>
<path d="M168.857 48.2979H166.229L163.121 39.2002H165.553L167.546 45.6367L169.539 39.2002H171.971L168.863 48.2979H168.857Z" fill="#20438E"/>
<path d="M175.571 39.2002V48.2979H173.306V39.2002H175.571Z" fill="#20438E"/>
<path d="M177.356 43.7638C177.356 41.1501 179.059 39.0342 182.173 39.0342C183.875 39.0342 185.257 39.8817 186.087 41.3219L184.255 42.4125C183.839 41.6598 183.056 41.1501 182.173 41.1501C180.583 41.1501 179.711 42.3176 179.711 43.7638C179.711 45.2099 180.53 46.3776 182.173 46.3776C183.068 46.3776 183.863 45.856 184.278 45.0914L186.087 46.2353C185.322 47.7585 183.863 48.4816 182.173 48.4816C178.988 48.4816 177.356 46.3657 177.356 43.7638Z" fill="#20438E"/>
<path d="M193.999 48.2979H187.522V39.2002H193.869V41.239H189.77V42.6674H193.531V44.6825H189.77V46.2531H193.999V48.292V48.2979Z" fill="#20438E"/>
<path d="M48.1083 22.5337V60.9278H38.4937L27.8293 50.2713L32.0523 68.1645L24.2112 75.9998L16.4234 68.2238L20.7414 49.8209L14.4424 56.1211V41.707L24.057 32.0818L38.4937 46.5078V22.5337H48.1083Z" fill="#20438E"/>
<path d="M9.62052 45.062H0V56.1215H9.62052V45.062Z" fill="#F47621"/>
<path d="M48.1147 4.8125H38.4941V15.872H48.1147V4.8125Z" fill="#F47621"/>
<path d="M24.0572 9.61334L9.62052 24.0393V0H0V38.4593H9.62052L24.0572 24.0393L33.6778 33.6526V19.2386L24.0572 9.61334Z" fill="#20438E"/>
</svg>
