<svg width="36" height="37" viewBox="0 0 36 37" fill="none" xmlns="http://www.w3.org/2000/svg">
<path d="M30.2402 6.99951L3.96016 6.99951C2.96604 6.99951 2.16016 7.8054 2.16016 8.79951L2.16016 21.0395C2.16016 22.0336 2.96604 22.8395 3.96016 22.8395H30.2402C31.2343 22.8395 32.0402 22.0336 32.0402 21.0395V8.79951C32.0402 7.8054 31.2343 6.99951 30.2402 6.99951Z" fill="#F9B552"/>
<path d="M32.04 9.8799L3.96 9.8799C1.77295 9.8799 0 11.6529 0 13.8399L0 30.0399C0 32.2269 1.77295 33.9999 3.96 33.9999H32.04C34.227 33.9999 36 32.2269 36 30.0399V13.8399C36 11.6529 34.227 9.8799 32.04 9.8799Z" fill="#FFCF5C"/>
<path d="M14.04 3.3999L3.96 3.3999C1.77295 3.3999 0 5.17285 0 7.3599L0 13.1199C0 15.307 1.77295 17.0799 3.96 17.0799H14.04C16.227 17.0799 18 15.307 18 13.1199V7.3599C18 5.17285 16.227 3.3999 14.04 3.3999Z" fill="#FFCF5C"/>
</svg>
