<svg width="366" height="318" viewBox="0 0 366 318" fill="none" xmlns="http://www.w3.org/2000/svg">
<path d="M0 313.714L2.14178 312.042C3.31007 314.072 5.17616 315.159 7.7886 315.159C10.401 315.159 11.8938 314.104 11.8938 312.367C11.8938 311.068 11.05 310.289 8.64854 309.721L5.80894 309.039C2.19048 308.146 0.519154 306.442 0.519154 303.763C0.519154 300.516 3.08295 298.325 7.46405 298.325C10.8391 298.325 13.4353 299.754 14.6198 301.978L12.4779 303.682C11.3908 302.059 9.68702 301.117 7.43157 301.117C4.96517 301.117 3.65091 302.091 3.65091 303.715C3.65091 304.9 4.42969 305.695 7.00967 306.279L9.96286 306.977C13.5326 307.838 15.0417 309.607 15.0417 312.188C15.0417 315.646 12.1697 317.951 7.69124 317.951C3.9592 317.951 1.28179 316.377 0.0161431 313.714H0Z" fill="white"/>
<path d="M24.6963 315.435C26.5624 315.435 28.2336 314.705 29.1261 313.52L30.7974 315.273C29.6292 316.896 27.2276 317.903 24.5828 317.903C20.2666 317.903 17.3458 315.029 17.3458 310.792C17.3458 306.555 20.3152 303.796 24.4529 303.796C28.9638 303.796 31.5925 306.669 31.2031 311.555H20.3963C20.3963 313.877 22.3435 315.451 24.6963 315.451V315.435ZM20.3802 309.656H28.2661C28.2337 307.578 26.8382 306.036 24.4529 306.036C22.0677 306.036 20.4451 307.74 20.3802 309.656Z" fill="white"/>
<path d="M42.9997 303.942L42.9509 306.815C42.383 306.766 41.7826 306.734 41.2147 306.734C38.8943 306.734 37.5152 308.146 37.5152 310.598V317.594H34.5132V304.072H37.434V306.507C38.2128 304.883 39.8355 303.779 41.7502 303.779C42.1559 303.779 42.594 303.828 42.9997 303.942Z" fill="white"/>
<path d="M53.2384 317.594H49.9445L44.5411 304.072H47.7863L51.5996 313.942L55.3802 304.072H58.6255L53.2546 317.594H53.2384Z" fill="white"/>
<path d="M60.735 299.51C60.735 298.487 61.5787 297.643 62.6334 297.643C63.6394 297.643 64.467 298.487 64.467 299.51C64.467 300.533 63.6232 301.377 62.6334 301.377C61.5787 301.377 60.735 300.533 60.735 299.51ZM64.11 304.072V317.594H61.1081V304.072H64.11Z" fill="white"/>
<path d="M67.4364 310.76C67.4364 306.523 70.3246 303.52 74.4948 303.52C77.1721 303.52 79.3627 304.737 80.5148 306.815L78.2918 308.357C77.448 307.01 76.1499 306.279 74.5922 306.279C72.1258 306.279 70.4869 308.065 70.4869 310.76C70.4869 313.455 72.142 315.224 74.5922 315.224C76.1661 315.224 77.4643 314.461 78.2918 313.081L80.5309 314.623C79.3626 316.734 77.1559 317.951 74.4786 317.951C70.2597 317.951 67.4202 314.997 67.4202 310.76H67.4364Z" fill="white"/>
<path d="M89.6988 315.435C91.5649 315.435 93.2361 314.705 94.1286 313.52L95.7999 315.273C94.6316 316.896 92.2301 317.903 89.5852 317.903C85.2691 317.903 82.3484 315.029 82.3484 310.792C82.3484 306.555 85.3177 303.796 89.4554 303.796C93.9663 303.796 96.595 306.669 96.2056 311.555H85.3988C85.3988 313.877 87.346 315.451 89.6988 315.451V315.435ZM85.3827 309.656H93.2686C93.2362 307.578 91.8407 306.036 89.4554 306.036C87.0701 306.036 85.4476 307.74 85.3665 309.656H85.3827Z" fill="white"/>
<path d="M103.524 301.572V298.682H118.793V301.572H112.708V317.61H109.592V301.572H103.507H103.524Z" fill="white"/>
<path d="M128.301 317.594V315.159C127.62 316.831 125.916 317.886 123.547 317.886C120.35 317.886 118.663 316.101 118.663 313.552C118.663 309.932 122.573 308.763 127.928 309.575L127.895 308.714C127.895 306.896 126.516 306.117 124.861 306.117C123.368 306.117 121.989 306.766 121.081 307.903L119.458 306.198C120.918 304.542 122.914 303.731 125.105 303.731C128.48 303.731 130.865 305.955 130.865 309.136V317.578H128.301V317.594ZM121.6 313.373C121.6 314.786 122.411 315.679 124.277 315.679C126.549 315.679 127.928 314.347 127.928 312.14V311.296C124.115 310.679 121.6 311.344 121.6 313.373Z" fill="white"/>
<path d="M133.98 299.51C133.98 298.487 134.824 297.643 135.879 297.643C136.885 297.643 137.712 298.487 137.712 299.51C137.712 300.533 136.869 301.377 135.879 301.377C134.824 301.377 133.98 300.533 133.98 299.51ZM137.355 304.072V317.594H134.354V304.072H137.355Z" fill="white"/>
<path d="M141.396 298.682H144.398V317.61H141.396V298.682Z" fill="white"/>
<path d="M147.464 310.727C147.464 306.637 150.466 303.747 154.782 303.747C159.099 303.747 161.938 306.637 161.938 310.727C161.938 314.818 158.969 317.919 154.701 317.919C150.434 317.919 147.464 314.997 147.464 310.727ZM158.92 310.809C158.92 308.162 157.184 306.263 154.782 306.263C152.235 306.263 150.515 308.13 150.515 310.809C150.515 313.487 152.219 315.321 154.701 315.321C157.184 315.321 158.92 313.455 158.92 310.809Z" fill="white"/>
<path d="M173.719 303.942L173.67 306.815C173.102 306.766 172.502 306.734 171.934 306.734C169.613 306.734 168.234 308.146 168.234 310.598V317.594H165.232V304.072H168.153V306.507C168.932 304.883 170.554 303.779 172.469 303.779C172.875 303.779 173.313 303.828 173.719 303.942Z" fill="white"/>
<path d="M182.4 315.435C184.266 315.435 185.937 314.705 186.829 313.52L188.501 315.273C187.332 316.896 184.931 317.903 182.286 317.903C177.97 317.903 175.049 315.029 175.049 310.792C175.049 306.555 178.018 303.796 182.156 303.796C186.667 303.796 189.296 306.669 188.906 311.555H178.1C178.1 313.877 180.047 315.451 182.4 315.451V315.435ZM178.083 309.656H185.969C185.937 307.578 184.541 306.036 182.156 306.036C179.771 306.036 178.148 307.74 178.067 309.656H178.083Z" fill="white"/>
<path d="M205.441 317.594H202.715V314.834C201.904 316.701 199.827 317.886 197.555 317.886C193.45 317.886 191.21 315.046 191.21 310.744C191.21 306.442 193.596 303.747 197.587 303.747C200.07 303.747 202.05 305.338 202.504 306.75V298.666H205.457V317.594H205.441ZM202.488 310.76C202.488 308.13 200.751 306.328 198.269 306.328C195.786 306.328 194.245 308.114 194.245 310.76C194.245 313.406 195.9 315.257 198.35 315.257C200.8 315.257 202.488 313.39 202.488 310.76Z" fill="white"/>
<path d="M213.668 311.945L216.751 310.938V311.425C216.751 313.341 218.325 314.948 220.272 314.948C222.219 314.948 223.793 313.357 223.793 311.425V298.666H226.908V311.344C226.908 315.029 223.939 318 220.288 318C216.832 318 213.862 315.208 213.7 311.945H213.668Z" fill="white"/>
<path d="M243.394 317.594H240.441V315.321C239.662 316.896 237.877 317.951 235.93 317.951C233.172 317.951 230.965 315.727 230.965 313V304.072H233.999V311.994C233.999 313.779 235.427 315.192 237.196 315.208C238.948 315.208 240.409 313.779 240.409 311.994L240.376 304.072H243.41V317.594H243.394Z" fill="white"/>
<path d="M246.396 315.516L247.743 313.487C248.83 314.672 250.631 315.484 252.562 315.484C254.314 315.484 255.191 314.786 255.191 313.747C255.191 312.935 254.623 312.448 253.195 312.091L250.631 311.474C248.002 310.857 246.932 309.607 246.932 307.773C246.932 305.143 249.041 303.503 252.497 303.503C254.882 303.503 256.927 304.315 258.03 305.614L256.651 307.643C255.467 306.555 254.087 305.987 252.497 305.987C250.793 305.987 249.933 306.604 249.933 307.659C249.933 308.422 250.453 308.877 251.913 309.234L254.477 309.851C257.186 310.533 258.257 311.75 258.257 313.617C258.257 316.263 256.148 317.951 252.562 317.951C249.917 317.951 247.646 317.026 246.429 315.516H246.396Z" fill="white"/>
<path d="M262.541 314.77L262.574 306.734H259.896V304.088H262.574V299.818H265.576V304.088H269.551V306.734H265.576V314.526C265.576 314.737 265.738 314.899 265.949 314.899H269.6V317.61H265.381C263.807 317.61 262.541 316.344 262.541 314.77Z" fill="white"/>
<path d="M276.837 306.734V304.088H279.725V302.172C279.725 299.77 281.558 298.682 283.489 298.682H286.621V301.328H283.7C283.1 301.328 282.727 301.783 282.727 302.383V304.088H286.556V306.734H282.727V317.61H279.725V306.734H276.837Z" fill="white"/>
<path d="M287.952 310.727C287.952 306.637 290.953 303.747 295.27 303.747C299.586 303.747 302.425 306.637 302.425 310.727C302.425 314.818 299.456 317.919 295.188 317.919C290.921 317.919 287.952 314.997 287.952 310.727ZM299.407 310.809C299.407 308.162 297.671 306.263 295.27 306.263C292.722 306.263 291.002 308.13 291.002 310.809C291.002 313.487 292.706 315.321 295.188 315.321C297.671 315.321 299.407 313.455 299.407 310.809Z" fill="white"/>
<path d="M314.189 303.942L314.141 306.815C313.573 306.766 312.972 306.734 312.405 306.734C310.084 306.734 308.705 308.146 308.705 310.598V317.594H305.703V304.072H308.624V306.507C309.403 304.883 311.025 303.779 312.94 303.779C313.346 303.779 313.784 303.828 314.189 303.942Z" fill="white"/>
<path d="M330.221 309.997V317.594H327.089V309.997L320.063 298.666H323.633L328.663 306.994L333.742 298.666H337.344L330.237 309.997H330.221Z" fill="white"/>
<path d="M335.981 310.727C335.981 306.637 338.983 303.747 343.299 303.747C347.616 303.747 350.455 306.637 350.455 310.727C350.455 314.818 347.486 317.919 343.218 317.919C338.951 317.919 335.981 314.997 335.981 310.727ZM347.437 310.809C347.437 308.162 345.701 306.263 343.299 306.263C340.752 306.263 339.032 308.13 339.032 310.809C339.032 313.487 340.736 315.321 343.218 315.321C345.701 315.321 347.437 313.455 347.437 310.809Z" fill="white"/>
<path d="M365.984 317.594H363.031V315.321C362.252 316.896 360.467 317.951 358.52 317.951C355.761 317.951 353.554 315.727 353.554 313V304.072H356.589V311.994C356.589 313.779 358.017 315.192 359.785 315.208C361.538 315.208 362.998 313.779 362.998 311.994L362.966 304.072H366V317.594H365.984Z" fill="white"/>
<path d="M101.138 216.702L93.3498 243.601H86.0154L81.4883 229.657L76.2635 243.601H68.9292L61.1406 216.702H68.3289L73.0183 234.137L79.817 216.702H83.1597L89.3094 234.137L93.9988 216.702H101.187H101.138Z" fill="white"/>
<path d="M103.118 230.144C103.118 221.767 108.797 216.167 117.332 216.167C125.867 216.167 131.546 221.767 131.546 230.144C131.546 238.52 125.867 244.121 117.332 244.121C108.797 244.121 103.118 238.504 103.118 230.144ZM124.618 230.144C124.618 225.501 121.697 222.417 117.316 222.417C112.935 222.417 110.014 225.485 110.014 230.144C110.014 234.803 112.935 237.871 117.316 237.871C121.697 237.871 124.618 234.803 124.618 230.144Z" fill="white"/>
<path d="M161.614 241.864C159.504 243.358 156.973 244.137 154.052 244.137C148.097 244.137 144.446 240.826 144.446 236.459C144.446 233.423 146.215 230.891 149.752 228.78C148.016 226.751 147.14 224.738 147.14 222.822C147.14 219.137 150.142 216.183 155.01 216.183C159.877 216.183 162.733 218.764 162.733 222.595C162.733 225.355 161.127 227.855 157.784 229.819L161.046 233.553C161.435 232.433 161.662 231.28 161.776 230.014H167.536C167.147 233.196 166.303 235.89 165.005 238.082L169.84 243.618H163.123L161.63 241.881L161.614 241.864ZM157.655 237.79L153.127 232.644C151.781 233.407 150.986 234.673 150.986 235.955C150.986 237.498 152.219 238.52 154.555 238.52C155.74 238.52 156.778 238.293 157.671 237.79H157.655ZM154.62 226.183C156.194 225.257 156.957 224.267 156.957 223.18C156.957 222.092 156.146 221.296 154.961 221.296C153.776 221.296 152.965 222.059 152.965 223.147C152.965 224.154 153.582 225.063 154.62 226.183Z" fill="white"/>
<path d="M220.142 216.702L212.353 243.601H205.019L200.492 229.657L195.267 243.601H187.933L180.144 216.702H187.332L192.022 234.137L198.821 216.702H202.163L208.313 234.137L213.002 216.702H220.191H220.142Z" fill="white"/>
<path d="M227.217 239.364L225.756 243.585H218.649L228.515 216.686H235.622L245.909 243.585H238.802L237.309 239.364H227.217ZM232.279 223.115L229.277 233.602H235.265L232.263 223.115H232.279Z" fill="white"/>
<path d="M274.192 243.601H267.896L256.408 227.579V243.601H249.804V216.702H256.099L267.588 232.725V216.702H274.192V243.601Z" fill="white"/>
<path d="M304.843 243.601H298.547L287.059 227.579V243.601H280.455V216.702H286.751L298.239 232.725V216.702H304.843V243.601Z" fill="white"/>
<path d="M21.5485 267.481C21.5485 272.789 18.1409 276.345 13.0459 276.345H8.14553V283.455H1.96332V258.553H13.0621C18.141 258.553 21.5647 262.108 21.5647 267.481H21.5485ZM15.1067 267.481C15.1067 265.484 13.9383 264.137 12.1859 264.137H8.12928V270.76H12.1859C13.9221 270.76 15.1067 269.802 15.1067 267.481Z" fill="white"/>
<path d="M43.7135 283.455H26.0107V258.553H43.3566V264.137H32.1604V268.049H42.4317V273.569H32.1604V277.871H43.7135V283.455Z" fill="white"/>
<path d="M55.2667 275.306V283.455H49.0845V258.553H60.67C65.2945 258.553 69.0591 262.286 69.0591 266.913C69.0591 270.501 66.8522 273.488 63.7205 274.705L63.2986 274.851L69.0591 283.455H61.5949L56.581 275.306H55.2667ZM59.8101 269.721C61.3678 269.721 62.6172 268.471 62.6172 266.913C62.6172 265.354 61.3678 264.137 59.8101 264.137H55.2667V269.721H59.8101Z" fill="white"/>
<path d="M71.7038 278.504L75.9065 275.095C77.4642 277.189 79.6061 278.406 82.4781 278.406C84.8634 278.406 86.4536 277.595 86.4536 276.198C86.4536 275.16 85.7072 274.494 83.4355 273.958L79.4113 273.001C74.7219 271.864 72.3367 269.299 72.3367 265.63C72.3367 261.15 76.0038 258.049 82.0725 258.049C86.6158 258.049 90.2506 260.079 92.0679 262.919L87.8652 266.377C86.34 264.705 84.4091 263.569 82.0401 263.569C79.671 263.569 78.5839 264.348 78.5839 265.484C78.5839 266.377 79.3627 267.01 81.7804 267.578L85.9343 268.569C90.4777 269.673 92.6845 272.156 92.6845 275.858C92.6845 280.663 88.5306 283.926 82.2348 283.926C77.2209 283.926 73.5212 281.896 71.6714 278.487L71.7038 278.504Z" fill="white"/>
<path d="M96.1082 271.004C96.1082 263.244 101.366 258.049 109.268 258.049C117.17 258.049 122.427 263.244 122.427 271.004C122.427 278.763 117.17 283.958 109.268 283.958C101.366 283.958 96.1082 278.763 96.1082 271.004ZM116.018 271.004C116.018 266.702 113.308 263.861 109.268 263.861C105.227 263.861 102.518 266.702 102.518 271.004C102.518 275.306 105.227 278.163 109.268 278.163C113.308 278.163 116.018 275.322 116.018 271.004Z" fill="white"/>
<path d="M149.801 283.455H143.976L133.348 268.617V283.455H127.23V258.553H133.056L143.684 273.39V258.553H149.801V283.455Z" fill="white"/>
<path d="M161.322 279.526L159.975 283.439H153.403L162.539 258.536H169.11L178.635 283.439H172.063L170.684 279.526H161.338H161.322ZM166.011 264.478L163.236 274.186H168.786L166.011 264.478Z" fill="white"/>
<path d="M199.453 283.455H182.237V258.553H188.42V277.724H199.437V283.455H199.453Z" fill="white"/>
<path d="M209.708 278.504L213.911 275.095C215.469 277.189 217.611 278.406 220.483 278.406C222.868 278.406 224.458 277.595 224.458 276.198C224.458 275.16 223.712 274.494 221.44 273.958L217.416 273.001C212.727 271.864 210.341 269.299 210.341 265.63C210.341 261.15 214.008 258.049 220.077 258.049C224.62 258.049 228.255 260.079 230.072 262.919L225.87 266.377C224.344 264.705 222.414 263.569 220.045 263.569C217.676 263.569 216.588 264.348 216.588 265.484C216.588 266.377 217.367 267.01 219.785 267.578L223.939 268.569C228.482 269.673 230.689 272.156 230.689 275.858C230.689 280.663 226.535 283.926 220.239 283.926C215.225 283.926 211.526 281.896 209.676 278.487L209.708 278.504Z" fill="white"/>
<path d="M252.724 283.455H235.021V258.553H252.367V264.137H241.171V268.049H251.442V273.569H241.171V277.871H252.724V283.455Z" fill="white"/>
<path d="M264.294 275.306V283.455H258.111V258.553H269.697C274.321 258.553 278.086 262.286 278.086 266.913C278.086 270.501 275.879 273.488 272.747 274.705L272.326 274.851L278.086 283.455H270.622L265.608 275.306H264.294ZM268.837 269.721C270.395 269.721 271.644 268.471 271.644 266.913C271.644 265.354 270.395 264.137 268.837 264.137H264.294V269.721H268.837Z" fill="white"/>
<path d="M295.302 283.455H288.114L279.611 258.553H286.264L291.7 276.166L297.136 258.553H303.788L295.286 283.455H295.302Z" fill="white"/>
<path d="M313.654 258.553V283.455H307.472V258.553H313.654Z" fill="white"/>
<path d="M318.538 271.036C318.538 263.877 323.195 258.082 331.698 258.082C336.355 258.082 340.119 260.387 342.407 264.348L337.393 267.335C336.257 265.273 334.115 263.877 331.698 263.877C327.365 263.877 324.98 267.075 324.98 271.036C324.98 274.997 327.219 278.179 331.698 278.179C334.148 278.179 336.322 276.75 337.458 274.656L342.407 277.789C340.314 281.945 336.322 283.942 331.698 283.942C322.984 283.942 318.538 278.147 318.538 271.036Z" fill="white"/>
<path d="M364.02 283.455H346.318V258.553H363.663V264.137H352.467V268.049H362.739V273.569H352.467V277.871H364.02V283.455Z" fill="white"/>
<path d="M245.666 58.7819V158.959H220.612L192.817 131.151L203.835 177.839L183.389 198.277L163.09 177.985L174.351 129.982L157.93 146.411V108.814L183 83.6842L220.612 121.33V58.7819H245.666Z" fill="white"/>
<path d="M145.371 117.564H120.302V146.411H145.371V117.564Z" fill="#EB7426"/>
<path d="M245.682 12.5486H220.612V41.3957H245.682V12.5486Z" fill="#EB7426"/>
<path d="M183 25.0647L145.371 62.7104V0H120.302V100.34H145.371L183 62.7104L208.053 87.7913V50.1943L183 25.0647Z" fill="white"/>
</svg>
